<svg id="Layer_1" data-name="Layer 1" xmlns="http://www.w3.org/2000/svg" viewBox="0 0 96 96"><title>github-corner-icon</title><path id="github-corner-icon-cutout" d="M0,0,96,96V0ZM57.2,32.6a.44637.44637,0,0,1-.5,0,.39925.39925,0,0,1-.2-.4.44637.44637,0,0,1,.5,0C57.2,32.3,57.3,32.5,57.2,32.6Zm22.3,8.3a17.301,17.301,0,0,1-20,3.5c-.7-.5-.6-1.1-.3-1.4.4-.4,2.5-2.4,4.1-4.1a3.83789,3.83789,0,0,0,1.4-3.1c3.1,2.4,6.3,5,11.1.2a5.56449,5.56449,0,0,0,1.6-4.2,6.69474,6.69474,0,0,0,3.2-3.5c-.6-1.3-4.6-2-4.6-2a13.12159,13.12159,0,0,0-2.7-3.5,15.55694,15.55694,0,0,0-3.5-2.7s-.7-4-2.1-4.7a6.69474,6.69474,0,0,0-3.5,3.2,5.59228,5.59228,0,0,0-4.1,1.7c-4.7,4.7-2.4,7.9.1,10.9a3.79539,3.79539,0,0,0-2.4.9c-1-.4-3.4-1.6-2.6-4.6a3.85775,3.85775,0,0,0-.6-3.2c-1.2-1.2-.8.7-.8.7a6.02226,6.02226,0,0,1-.4,3.2c-1.5,2.9,2.7,5.6,2.7,5.6l-3,3c-.3.3-.9.5-1.4-.3a17.47632,17.47632,0,0,1,3.4-20.1,16.66765,16.66765,0,0,1,24,0C85.9,23.2,86.3,34.1,79.5,40.9ZM56.1,31.8a.24737.24737,0,0,1-.4-.1c-.2-.1-.2-.3-.1-.5a.24737.24737,0,0,1,.4.1C56.2,31.5,56.2,31.7,56.1,31.8Zm-1.2-6c-.1,0-.2,0-.2-.2,0-.1,0-.3.1-.3s.2,0,.2.2C55.1,25.7,55,25.8,54.9,25.8Zm.2.8c0,.2-.1.3-.2.3s-.2-.1-.2-.3.1-.3.2-.3S55.1,26.4,55.1,26.6Zm-.3.8c.1,0,.2.2.2.4a.3193.3193,0,0,1-.3.3c-.1,0-.2-.2-.2-.4A.3193.3193,0,0,1,54.8,27.4Zm-.2,1.3c.1,0,.3.1.3.4,0,.2-.1.4-.2.4s-.3-.1-.3-.4S54.5,28.7,54.6,28.7Zm.2,1.4c.1-.1.3,0,.4.2a.44637.44637,0,0,1,0,.5c-.1.1-.3,0-.4-.2A.32992.32992,0,0,1,54.8,30.1Z" fill="#002a3d"/></svg>