<svg id="Layer_1" data-name="Layer 1" xmlns="http://www.w3.org/2000/svg" viewBox="0 0 96 96"><title>github-corner-icon</title><g id="github-corner-icon-white"><path d="M0,0,96,96V0Z" fill="#002a3d"/><path d="M56.1,31.8a.24737.24737,0,0,1-.4-.1c-.2-.1-.2-.3-.1-.5a.24737.24737,0,0,1,.4.1C56.2,31.5,56.2,31.7,56.1,31.8Zm-1.3-1.7a.44637.44637,0,0,0,0,.5c.1.2.3.3.4.2a.44637.44637,0,0,0,0-.5c-.1-.2-.3-.3-.4-.2ZM57,32.2a.44637.44637,0,0,0-.5,0c-.1.1,0,.3.2.4a.44637.44637,0,0,0,.5,0C57.3,32.5,57.2,32.3,57,32.2ZM79.1,16.6a16.58335,16.58335,0,0,0-24,0,17.42492,17.42492,0,0,0-3.4,20.1c.5.7,1.1.6,1.4.3l3-3s-4.2-2.7-2.7-5.6c0,0,.9-2,.4-3.2,0,0-.4-1.9.8-.7a3.71419,3.71419,0,0,1,.6,3.2,3.644,3.644,0,0,0,2.6,4.6,3.9946,3.9946,0,0,1,2.4-.9c-2.4-3.1-4.8-6.2-.1-10.9a4.9194,4.9194,0,0,1,4.1-1.7,6.69469,6.69469,0,0,1,3.5-3.2c1.3.7,2.1,4.7,2.1,4.7A13.12159,13.12159,0,0,1,73.3,23,18.17459,18.17459,0,0,1,76,26.5s4,.7,4.7,2.1a6.69474,6.69474,0,0,1-3.2,3.5,5.70961,5.70961,0,0,1-1.6,4.2c-4.7,4.7-8,2.2-11.1-.2a4.05365,4.05365,0,0,1-1.4,3.1l-4.1,4.1c-.3.3-.5.9.3,1.4a17.19651,17.19651,0,0,0,20-3.5A17.47659,17.47659,0,0,0,79.1,16.6ZM54.9,26.3c-.1,0-.2.1-.2.3s.1.3.2.3.2-.1.2-.3S55,26.3,54.9,26.3Zm-.1-1c-.1,0-.1.2-.1.3a.21508.21508,0,0,0,.2.2c.1,0,.1-.2.1-.3A.21508.21508,0,0,0,54.8,25.3Zm-.2,3.4a.29509.29509,0,0,0-.2.4c0,.2.1.4.3.4.1,0,.2-.2.2-.4C54.9,28.8,54.8,28.7,54.6,28.7Zm.2-1.3a.3193.3193,0,0,0-.3.3c0,.2,0,.4.2.4a.3193.3193,0,0,0,.3-.3c0-.2-.1-.4-.2-.4Z" fill="#fff"/></g></svg>