<svg xmlns="http://www.w3.org/2000/svg" xmlns:xlink="http://www.w3.org/1999/xlink" viewBox="0 0 1920 1920"><defs><radialGradient id="radial-gradient" cx="960" cy="960" r="1362.86" gradientUnits="userSpaceOnUse"><stop offset="0" stop-color="#cce0f4"/><stop offset="0.07" stop-color="#c3dcf2"/><stop offset="0.18" stop-color="#a9d2ee"/><stop offset="0.32" stop-color="#80c2e7"/><stop offset="0.48" stop-color="#47acde"/><stop offset="0.59" stop-color="#1e9cd7"/><stop offset="0.8" stop-color="#0075be"/><stop offset="0.99" stop-color="#005b97"/></radialGradient><clipPath id="clip-path"><rect width="1920" height="1920" fill="none"/></clipPath><radialGradient id="radial-gradient-2" cx="960" cy="960" r="1375" gradientUnits="userSpaceOnUse"><stop offset="0" stop-color="#005b97"/><stop offset="0.18" stop-color="#00568e"/><stop offset="0.49" stop-color="#004874"/><stop offset="0.88" stop-color="#00324b"/><stop offset="0.99" stop-color="#002a3d"/></radialGradient></defs><title>Sun Rays</title><g style="isolation:isolate"><g id="Layer_1" data-name="Layer 1"><rect width="1920" height="1920" fill="url(#radial-gradient)"/><g style="mix-blend-mode:hard-light"><g clip-path="url(#clip-path)"><path d="M960.11,2335h-.46a1378.11,1378.11,0,0,1-337.36-41.95L958.44,964.14,290.05,2160.89A1378,1378,0,0,1,4.38,1948.65L959.27,960.86l.08-.33.17,0-.14-.08,0-.06h-.12l-.59-.32-.57.35L-414.65,991c-.23-10.28-.35-20.71-.35-31a1379.46,1379.46,0,0,1,38.18-322.46L955.65,958.37l-1204.1-654.6a1377.91,1377.91,0,0,1,209-288.12L958.93,959.16l.6.14,0,.13v-.11h0l.34-.64-.43-.68L913.44-414.22c15.43-.52,31.09-.78,46.56-.78a1379.69,1379.69,0,0,1,307.18,34.6L961.69,955.43,1602.43-255.85A1377.31,1377.31,0,0,1,1893-50.07l-932,1008.83-.15.68.45,0-.48.15,0,.1.54.31,1-.61,1371.4-61.43c.92,20.57,1.39,41.45,1.39,62.06a1377.48,1377.48,0,0,1-45.89,352.92L963.93,961.51l1189.24,682.07a1377.78,1377.78,0,0,1-215.44,283.2l-977-966.13-.13,0-.07-.16h0l-.11-.39-.17.05c0,.06,0,.11.06.15l-.12-.12h0l.16.14.12.23.05,0-.06.11-.37-.1v.75l0,.08,0,.07,15.56,1373.53C970.45,2335,965.23,2335,960.11,2335Zm-.58-1374.52,0,.06.11-.11.24-.07v0h-.13l.07-.07-.13,0,0,0h0l-.17.09,0,.06.08,0s0,0,0,0Zm.17-.59h0l0,0-.07-.16-.05,0,.07.22Zm-.31-.29.2.18v-.14l-.1-.07,0-.05Zm1-.24-.1.1h.16ZM1328.13,2285,961.42,963.68l695.66,1181.64A1371.49,1371.49,0,0,1,1328.13,2285ZM-217.3,1670.54a1371.91,1371.91,0,0,1-143.4-327.3L956.48,961.36ZM960.5,960.45l-.13-.12.14.1Zm2.55-1.61,1157.78-736A1372.85,1372.85,0,0,1,2271.61,546.7Zm-4.3-2.09L236.12-209.14A1372.19,1372.19,0,0,1,561.7-356.24Z" opacity="0.25" fill="url(#radial-gradient-2)" style="mix-blend-mode:luminosity"/></g></g></g></g></svg>